<?xml version="1.0" standalone="no"?>
<!DOCTYPE svg PUBLIC "-//W3C//DTD SVG 20010904//EN"
 "http://www.w3.org/TR/2001/REC-SVG-20010904/DTD/svg10.dtd">
<svg version="1.0" xmlns="http://www.w3.org/2000/svg"
 width="440.000000pt" height="423.000000pt" viewBox="0 0 440.000000 423.000000"
 preserveAspectRatio="xMidYMid meet">

<g transform="translate(0.000000,423.000000) scale(0.100000,-0.100000)"
fill="#000000" stroke="none">
<path d="M2220 3970 l0 -160 -65 0 -65 0 0 150 c0 143 -1 150 -20 150 -19 0
-20 -7 -20 -150 l0 -150 -35 0 c-19 0 -35 -3 -35 -7 1 -26 25 -29 238 -25 181
3 222 7 222 18 0 11 -20 14 -90 14 l-90 0 0 80 0 80 75 0 c68 0 75 2 75 20 0
18 -7 20 -75 20 l-75 0 0 60 c0 53 -2 60 -20 60 -19 0 -20 -7 -20 -160z"/>
<path d="M2740 4101 l0 -31 -75 0 c-68 0 -75 -2 -75 -20 0 -18 7 -20 75 -20
l75 0 0 -85 0 -85 -34 0 c-30 0 -33 -3 -29 -21 5 -18 11 -21 45 -16 22 3 43 8
46 12 4 4 9 49 10 101 4 92 5 94 28 94 17 0 24 6 24 20 0 15 -7 20 -24 20 -19
0 -25 6 -28 27 -2 17 -10 29 -20 31 -14 3 -18 -3 -18 -27z"/>
<path d="M3067 4124 c-4 -4 -7 -56 -7 -116 0 -116 -11 -160 -50 -196 -22 -20
-20 -42 4 -42 7 0 21 10 32 23 39 45 49 87 49 211 0 111 -7 141 -28 120z"/>
<path d="M410 4095 c-5 -14 -13 -37 -16 -51 -10 -41 -24 -38 -24 5 l0 41 -55
0 -55 0 0 -135 c0 -74 -1 -138 -2 -142 -2 -4 5 -9 15 -11 10 -2 17 3 17 12 0
18 35 22 45 6 3 -5 13 -10 21 -10 11 0 14 17 14 80 0 61 3 78 13 74 8 -3 21
11 33 33 l19 38 3 -132 c2 -125 4 -133 22 -133 17 0 20 7 20 40 l0 40 56 0
c47 0 55 3 50 16 -3 9 -6 18 -6 20 0 2 -22 4 -50 4 -47 0 -50 2 -50 25 0 23 3
25 50 25 43 0 50 3 50 20 0 17 -7 20 -50 20 -47 0 -50 2 -50 25 0 24 3 25 55
25 48 0 55 2 55 20 0 18 -7 20 -69 20 -64 0 -70 2 -73 22 -4 32 -26 34 -38 3z
m-78 -52 c7 -34 -4 -63 -23 -63 -15 0 -19 7 -19 33 0 19 3 37 7 40 12 13 32 7
35 -10z m0 -138 c4 -31 1 -35 -19 -35 -20 0 -23 5 -23 35 0 28 4 35 19 35 14
0 20 -9 23 -35z"/>
<path d="M2494 4109 c-3 -6 7 -25 25 -42 24 -25 33 -29 43 -19 9 9 6 18 -17
42 -31 33 -40 36 -51 19z"/>
<path d="M1437 4103 c-4 -3 -7 -35 -7 -70 l0 -63 120 0 120 0 0 69 0 69 -113
1 c-62 1 -116 -2 -120 -6z m193 -43 c0 -6 -31 -10 -74 -10 -41 0 -78 5 -81 10
-4 6 23 10 74 10 47 0 81 -4 81 -10z m0 -50 c0 -6 -32 -10 -75 -10 -43 0 -75
4 -75 10 0 6 32 10 75 10 43 0 75 -4 75 -10z"/>
<path d="M650 4080 c0 -18 7 -20 65 -20 57 0 65 -2 65 -19 0 -45 -9 -51 -76
-51 -57 0 -64 -2 -64 -20 0 -18 7 -20 60 -20 33 0 60 -3 60 -6 0 -21 -60 -100
-91 -120 -26 -16 -36 -29 -33 -39 7 -18 8 -18 42 -1 35 18 99 84 109 113 7 20
11 18 53 -34 25 -31 57 -66 73 -77 25 -18 29 -19 43 -4 15 15 13 18 -25 43
-23 14 -55 47 -72 73 l-30 47 66 3 c57 3 65 5 65 22 0 18 -7 20 -75 20 -67 0
-75 2 -75 19 0 45 9 51 76 51 57 0 64 2 64 20 0 19 -7 20 -150 20 -143 0 -150
-1 -150 -20z"/>
<path d="M1010 4080 c0 -17 8 -19 81 -22 l82 -3 -47 -55 c-25 -30 -62 -63 -81
-74 -35 -20 -44 -39 -25 -51 13 -8 67 25 100 60 l25 27 5 -99 c4 -83 8 -98 23
-101 15 -3 17 7 17 98 l0 101 28 -15 c15 -8 40 -28 56 -45 33 -35 51 -39 60
-15 4 9 5 18 4 18 -2 1 -24 18 -50 39 -25 20 -58 41 -72 47 -28 10 -32 21 -16
51 9 15 22 19 70 19 53 0 60 2 60 20 0 19 -7 20 -160 20 -152 0 -160 -1 -160
-20z"/>
<path d="M1769 3975 c-2 -221 -3 -205 22 -205 19 0 21 5 17 39 -2 30 0 37 9
30 8 -8 16 -1 29 22 16 32 17 32 31 13 8 -10 21 -18 29 -16 9 2 14 -6 14 -23
0 -20 -5 -25 -24 -25 -19 0 -23 -4 -19 -20 4 -14 14 -20 32 -20 47 0 51 12 51
177 l0 153 -95 0 -95 0 -1 -125z m151 3 c-1 -86 -2 -91 -16 -73 -15 20 -15 35
2 113 5 26 3 32 -10 32 -10 0 -19 -11 -22 -30 -7 -35 -20 -39 -29 -10 -4 12
-14 19 -23 18 -15 -3 -23 17 -15 35 2 4 29 7 59 7 l54 0 0 -92z m-80 -28 c6
-11 2 -27 -12 -48 -11 -18 -21 -32 -22 -32 -1 0 -1 29 -1 65 0 67 5 69 35 15z"/>
<path d="M2880 4085 c0 -8 9 -15 20 -15 17 0 20 -7 20 -50 0 -43 -3 -50 -20
-50 -11 0 -20 -7 -20 -15 0 -8 9 -15 20 -15 18 0 20 -7 20 -55 0 -48 -2 -55
-20 -55 -14 0 -20 -7 -20 -21 0 -17 4 -20 23 -15 59 14 97 37 97 56 0 17 -3
19 -19 10 -28 -14 -31 -13 -27 13 3 12 5 32 5 45 1 13 7 22 16 22 8 0 15 7 15
15 0 8 -7 15 -15 15 -8 0 -15 8 -16 18 -1 9 -2 32 -4 50 -2 28 0 32 21 32 15
0 24 6 24 15 0 12 -13 15 -60 15 -47 0 -60 -3 -60 -15z"/>
<path d="M3110 4085 c0 -8 9 -15 20 -15 17 0 20 -7 20 -50 0 -43 -3 -50 -20
-50 -11 0 -20 -6 -20 -14 0 -8 9 -18 20 -21 17 -5 20 -15 20 -66 0 -59 0 -59
-30 -59 -20 0 -30 -5 -30 -15 0 -13 12 -15 72 -13 46 2 73 7 76 16 2 8 -7 12
-27 12 l-31 0 0 59 c0 55 2 59 26 65 30 8 27 30 -4 34 -19 3 -22 10 -22 53 0
46 2 49 25 49 16 0 25 6 25 15 0 12 -13 15 -60 15 -47 0 -60 -3 -60 -15z"/>
<path d="M3410 4085 c0 -12 14 -15 66 -15 l66 0 -7 -52 c-9 -67 -10 -69 -47
-66 -30 2 -30 3 -24 50 5 39 4 48 -8 48 -18 0 -29 -37 -30 -94 l-1 -40 68 2
67 2 0 -45 c0 -49 -16 -65 -65 -65 -20 0 -26 -4 -23 -17 7 -38 111 -21 122 20
3 12 6 48 6 80 0 51 -2 57 -21 57 -18 0 -20 4 -15 33 3 17 8 51 12 75 l7 42
-87 0 c-70 0 -86 -3 -86 -15z"/>
<path d="M3291 4082 c-7 -2 -11 -52 -11 -138 0 -112 2 -134 15 -134 8 0 15 5
15 10 0 6 9 10 19 10 11 0 23 -4 26 -10 19 -30 25 2 25 124 l0 134 -39 4 c-22
2 -45 2 -50 0z m57 -117 c2 -62 -1 -91 -10 -96 -6 -4 -16 -5 -20 -3 -10 6 -11
178 -1 188 19 19 28 -8 31 -89z"/>
<path d="M1980 3965 c0 -108 1 -115 20 -115 19 0 20 7 20 115 0 108 -1 115
-20 115 -19 0 -20 -7 -20 -115z"/>
<path d="M3010 4016 c0 -24 -4 -56 -9 -70 -7 -18 -6 -28 4 -36 19 -16 32 17
37 91 2 45 0 54 -14 57 -15 3 -18 -4 -18 -42z"/>
<path d="M2626 3992 c-9 -15 32 -84 47 -79 20 6 17 23 -11 57 -20 23 -31 30
-36 22z"/>
<path d="M2480 3975 c0 -9 9 -15 25 -15 23 0 25 -3 25 -51 0 -39 -6 -58 -26
-85 -21 -27 -24 -37 -14 -49 10 -12 15 -10 35 12 l22 27 29 -19 c25 -17 47
-20 144 -20 101 0 115 2 118 18 3 15 -7 17 -110 17 -151 0 -158 5 -158 106 l0
74 -45 0 c-33 0 -45 -4 -45 -15z"/>
<path d="M1385 3940 c-11 -17 5 -30 36 -30 16 0 29 -2 29 -5 0 -11 -33 -69
-46 -83 -16 -16 -17 -22 -5 -41 8 -12 15 -8 36 17 l27 32 30 -25 c23 -19 42
-25 86 -27 31 -1 72 -2 90 -3 23 -2 36 4 43 16 9 18 5 19 -59 19 -73 0 -84 4
-75 26 3 9 21 14 54 14 36 0 49 4 49 14 0 11 -15 16 -52 18 -30 2 -53 8 -56
16 -3 9 16 12 72 12 69 0 76 2 76 20 0 19 -7 20 -164 20 -99 0 -167 -4 -171
-10z m155 -75 c0 -49 -4 -53 -39 -29 -16 12 -22 23 -18 40 3 15 -1 25 -12 27
-9 3 3 5 27 6 l42 1 0 -45z"/>
<path d="M3397 3873 c-18 -17 -1 -23 68 -23 60 0 75 3 75 15 0 12 -14 15 -68
15 -38 0 -72 -3 -75 -7z"/>
<path d="M3948 3723 c-10 -2 -18 -9 -18 -14 0 -6 -13 -15 -30 -20 -16 -6 -30
-15 -30 -20 0 -5 -24 -9 -54 -9 -49 0 -57 -3 -71 -28 -22 -37 -67 -56 -116
-49 -23 3 -42 1 -46 -6 -7 -12 41 -57 63 -57 15 0 19 -2 66 -44 15 -14 35 -27
45 -30 29 -9 165 -164 206 -235 21 -36 54 -112 73 -169 19 -57 44 -118 55
-135 10 -18 19 -42 19 -54 0 -12 4 -24 9 -27 4 -3 11 -24 15 -46 4 -27 11 -40
22 -40 12 0 14 10 8 59 -3 33 -3 85 1 116 6 51 10 58 45 81 22 15 42 35 45 45
4 11 12 19 19 19 6 0 23 18 36 39 14 21 28 37 32 35 12 -8 21 130 14 235 -6
89 -11 112 -31 143 -14 21 -25 41 -25 46 0 21 -120 111 -207 156 -30 15 -105
20 -145 9z"/>
<path d="M2868 3691 c-37 -3 -73 -12 -80 -18 -6 -7 -29 -13 -49 -13 -39 0 -61
-17 -39 -30 15 -9 151 -2 164 9 10 8 203 17 266 12 20 -1 22 -3 10 -11 -11 -7
-6 -10 20 -10 19 0 72 -3 117 -7 79 -6 82 -5 80 16 -1 11 -5 21 -10 21 -4 0
-5 5 -2 10 4 6 -28 10 -87 11 -51 0 -115 3 -143 5 -142 10 -186 11 -247 5z"/>
<path d="M2160 3609 c-160 -10 -200 -18 -229 -49 -36 -36 -65 -75 -114 -150
l-42 -65 0 -120 c0 -128 6 -147 67 -218 13 -14 30 -36 39 -49 9 -13 29 -30 45
-38 16 -8 48 -27 72 -43 46 -31 65 -27 78 16 3 12 12 29 19 37 7 8 23 46 34
85 12 38 25 72 29 75 14 10 52 69 52 81 0 6 14 27 31 47 18 20 40 55 51 79 21
48 159 193 199 210 14 6 51 27 83 48 47 30 55 39 45 51 -15 19 -58 18 -65 -1
-4 -8 -14 -15 -24 -15 -10 0 -22 -9 -25 -20 -5 -16 -15 -20 -52 -20 -26 0 -53
6 -62 14 -9 8 -41 23 -71 33 -46 15 -73 17 -160 12z"/>
<path d="M3335 3290 c-28 -11 -60 -48 -87 -99 -19 -36 -31 -45 -75 -60 -29
-10 -53 -16 -53 -13 0 3 -10 -8 -22 -23 -16 -21 -19 -31 -11 -44 14 -22 80
-29 127 -14 51 17 66 30 66 58 0 26 52 75 80 75 10 0 31 7 46 15 16 8 39 15
51 15 32 0 53 10 53 27 0 8 5 11 10 8 6 -3 10 -3 10 2 -1 14 -24 39 -47 51
-25 14 -118 15 -148 2z"/>
<path d="M2600 3123 c50 -65 81 -86 95 -64 9 15 -47 68 -79 75 -27 7 -28 6
-16 -11z"/>
<path d="M3323 3061 c-23 -11 -45 -16 -49 -13 -4 4 -5 0 -1 -9 3 -9 1 -21 -4
-26 -6 -6 -6 -19 0 -35 7 -20 18 -26 53 -31 27 -4 48 -1 58 7 8 7 27 17 43 24
42 18 37 66 -10 91 -29 15 -41 14 -90 -8z"/>
<path d="M2699 3023 c25 -43 27 -45 40 -30 9 12 8 18 -4 31 -23 23 -49 22 -36
-1z"/>
<path d="M2590 2962 c-21 -7 -39 -34 -33 -48 8 -20 94 -37 127 -24 l28 10 -19
33 c-15 26 -26 32 -54 33 -18 0 -41 -1 -49 -4z"/>
<path d="M3454 2808 c4 -18 11 -57 15 -85 5 -29 19 -65 30 -79 16 -20 21 -41
21 -84 0 -56 9 -95 35 -155 7 -16 16 -57 20 -90 4 -33 12 -63 17 -66 5 -3 11
-30 15 -60 3 -30 14 -64 24 -77 12 -16 16 -33 12 -55 -3 -18 0 -52 7 -75 11
-44 63 -112 75 -100 4 4 10 27 12 52 4 34 0 55 -16 86 -15 29 -21 59 -21 106
0 50 -5 71 -21 93 -11 15 -27 56 -35 92 -15 70 -17 77 -33 135 -6 22 -11 53
-11 71 0 17 -4 34 -9 37 -5 3 -17 36 -27 73 -10 38 -26 82 -36 98 -10 17 -18
44 -18 61 0 34 -16 54 -43 54 -16 0 -18 -5 -13 -32z"/>
<path d="M1213 2810 c-18 -7 -23 -17 -23 -48 0 -21 -5 -64 -10 -95 -6 -31 -12
-126 -13 -212 -2 -155 -2 -156 21 -162 13 -3 26 -3 29 0 10 11 22 159 22 285
1 68 5 131 10 140 5 9 11 35 12 57 4 43 -7 52 -48 35z"/>
<path d="M893 2793 c-7 -2 -13 -20 -13 -38 0 -19 -5 -56 -10 -82 -19 -89 -32
-227 -40 -428 -5 -110 -12 -237 -16 -281 -6 -76 -5 -84 17 -113 21 -29 25 -30
36 -15 25 34 33 125 34 394 2 151 6 289 11 305 5 17 13 70 18 119 5 49 13 93
18 98 6 6 7 18 5 29 -5 18 -32 24 -60 12z"/>
<path d="M2581 2739 c-17 -16 -35 -47 -40 -67 -35 -130 -41 -163 -41 -218 0
-35 -6 -74 -15 -90 -8 -16 -15 -47 -15 -69 0 -22 -6 -50 -14 -61 -8 -11 -19
-49 -24 -85 -5 -35 -21 -94 -35 -131 -14 -36 -23 -69 -20 -72 4 -3 16 -6 29
-6 23 0 34 22 34 71 0 14 9 34 19 46 11 12 27 56 37 107 10 47 21 86 25 86 4
0 11 31 15 70 3 38 10 67 15 64 5 -3 9 13 9 35 0 22 5 52 11 68 7 15 13 49 14
75 3 43 28 128 46 153 6 10 -6 55 -15 55 -2 0 -18 -14 -35 -31z"/>
<path d="M2026 2738 c-3 -13 -6 -55 -6 -95 0 -46 -4 -73 -12 -75 -15 -5 -26
-97 -27 -229 -1 -160 -9 -199 -40 -211 -47 -19 -96 -43 -101 -50 -6 -7 -153
-78 -163 -78 -12 0 -111 -62 -137 -86 -29 -26 -84 -59 -122 -75 -16 -6 -28
-14 -28 -19 0 -4 -13 -13 -30 -20 -16 -7 -30 -18 -30 -25 0 -6 -17 -20 -37
-31 -65 -33 -136 -77 -205 -126 -58 -43 -72 -48 -117 -48 -37 0 -60 6 -81 21
-24 19 -38 21 -85 16 -48 -5 -60 -11 -95 -47 -22 -23 -40 -50 -40 -60 0 -27
-17 -34 -36 -16 -30 31 -72 20 -119 -31 -25 -27 -61 -64 -81 -83 -33 -33 -35
-38 -23 -63 7 -15 16 -27 20 -27 4 0 11 -25 15 -56 3 -30 17 -74 30 -97 13
-23 31 -56 40 -72 8 -17 32 -42 52 -55 21 -14 39 -27 42 -30 23 -25 73 -43
127 -48 35 -2 66 -9 69 -13 7 -12 60 -11 82 1 27 15 110 50 119 50 15 0 63 69
63 92 0 27 45 68 74 68 12 0 46 9 76 21 30 11 80 27 110 36 30 8 62 20 70 27
25 21 86 46 112 46 13 0 33 6 44 14 50 35 154 50 367 52 216 3 243 6 231 25
-4 7 -3 9 4 6 14 -9 43 3 36 14 -3 5 -14 9 -25 9 -11 0 -22 6 -25 14 -6 15 29
90 52 114 8 7 14 22 14 33 0 10 4 19 9 19 5 0 11 10 14 23 13 49 117 77 267
72 87 -3 199 -28 252 -56 22 -11 528 -12 528 -1 0 4 30 13 66 19 74 13 79 16
70 39 -5 14 -19 15 -104 10 -53 -3 -193 -9 -311 -12 -223 -7 -254 -3 -329 38
-18 10 -42 18 -53 18 -11 0 -32 6 -47 14 -15 8 -46 17 -67 21 -22 4 -67 20
-100 36 -32 16 -76 32 -97 35 -21 4 -38 10 -38 15 0 4 -9 11 -21 14 -23 7
-159 138 -159 152 0 5 -10 20 -22 33 -23 24 -23 27 -25 379 -2 195 -5 356 -7
358 -2 2 -6 -7 -10 -19z m-1192 -1450 c-1 -33 -5 -62 -8 -65 -3 -3 -17 3 -32
13 -15 11 -36 24 -47 31 -26 14 -37 41 -28 66 6 17 8 16 19 -7 15 -32 48 -34
58 -3 21 70 43 51 38 -35z m34 -90 c15 -15 16 -74 1 -84 -17 -10 -30 10 -36
55 -6 43 9 55 35 29z"/>
<path d="M1477 2685 c-13 -13 -17 -36 -18 -108 0 -51 -2 -110 -4 -132 -14
-133 -27 -220 -36 -238 -13 -24 8 -110 25 -104 20 7 38 100 47 242 5 77 13
170 19 207 13 88 13 110 -3 132 -13 17 -14 17 -30 1z"/>
<path d="M2971 2590 c-18 -4 -44 -20 -57 -35 -21 -24 -21 -29 -10 -63 13 -36
15 -37 62 -35 59 1 178 53 195 84 18 35 -9 53 -89 56 -37 1 -82 -2 -101 -7z"/>
<path d="M4198 2563 c-2 -10 2 -40 9 -68 7 -27 16 -85 20 -127 6 -75 5 -78
-37 -165 -51 -104 -75 -139 -149 -213 -29 -30 -62 -68 -71 -83 -11 -18 -54
-46 -126 -83 -60 -31 -114 -60 -120 -65 -5 -4 -37 -15 -70 -23 -32 -7 -72 -20
-87 -29 -26 -13 -27 -16 -12 -31 13 -13 39 -16 131 -16 69 0 114 -4 114 -10 0
-5 12 -10 26 -10 31 0 114 -80 114 -109 0 -10 7 -25 17 -32 21 -18 52 -87 53
-116 0 -43 48 -55 243 -60 l147 -4 0 502 0 502 -62 59 c-35 32 -65 58 -68 58
-3 0 -16 32 -29 70 -24 70 -36 85 -43 53z"/>
<path d="M3050 2359 c-19 -6 -42 -17 -51 -25 -9 -8 -23 -12 -32 -9 -8 4 -18 2
-22 -4 -3 -6 1 -11 11 -11 12 0 14 -3 6 -13 -8 -10 -6 -13 11 -14 12 -1 34
-16 48 -32 15 -19 35 -31 50 -31 13 0 58 -7 99 -16 41 -9 115 -17 165 -19 134
-5 158 18 83 77 -24 18 -47 38 -53 45 -5 6 -37 16 -70 22 -33 6 -80 14 -105
19 -93 20 -106 21 -140 11z"/>
<path d="M2770 2312 c-138 -67 -200 -128 -200 -196 0 -49 -5 -47 102 -27 54
10 128 47 128 64 0 10 57 59 79 69 9 4 11 7 4 7 -14 1 -18 41 -4 41 7 0 7 48
-1 54 -19 16 -60 11 -108 -12z"/>
<path d="M2890 2320 c0 -5 7 -10 15 -10 8 0 15 5 15 10 0 6 -7 10 -15 10 -8 0
-15 -4 -15 -10z"/>
<path d="M3075 2019 c-51 -12 -82 -28 -90 -47 -10 -27 11 -35 79 -28 53 6 70
13 96 38 25 24 29 32 19 39 -17 11 -51 10 -104 -2z"/>
<path d="M2255 1341 c-95 -15 17 -21 401 -21 263 0 404 3 404 10 0 6 -1 10 -2
11 -14 5 -773 5 -803 0z"/>
<path d="M1573 1018 c-18 -4 -35 -13 -38 -18 -3 -6 -17 -10 -30 -10 -19 0 -85
-58 -85 -76 0 -16 31 -72 49 -88 11 -11 21 -24 21 -31 0 -6 11 -22 25 -35 14
-13 25 -31 25 -41 0 -16 -14 -18 -132 -21 -155 -4 -249 -26 -302 -69 -19 -16
-36 -39 -38 -52 -3 -19 -9 -22 -43 -20 -22 1 -56 5 -76 8 -29 6 -37 3 -43 -11
-8 -22 4 -34 69 -68 76 -40 145 -33 130 13 -4 13 -1 28 7 38 7 9 11 19 8 22
-3 3 5 7 18 9 12 2 22 7 22 11 0 24 177 59 303 59 67 -1 113 4 120 11 6 6 23
11 37 11 14 0 35 7 46 15 18 14 15 19 -69 98 -88 83 -100 105 -78 146 6 10 28
25 50 35 37 17 60 52 43 67 -4 3 -21 2 -39 -3z"/>
<path d="M305 928 c-22 -11 -50 -30 -62 -41 -23 -20 -30 -62 -15 -82 12 -18
69 -55 84 -55 22 0 65 -51 75 -90 11 -41 7 -142 -7 -185 -9 -25 -7 -32 13 -53
l24 -24 39 21 c21 12 49 21 62 21 29 0 90 27 118 52 17 15 20 26 15 46 -10 38
-34 38 -102 2 -32 -17 -63 -29 -68 -26 -5 3 -9 26 -9 50 -2 61 -30 169 -48
179 -8 4 -14 12 -14 16 0 5 -16 25 -35 45 -35 38 -47 86 -22 86 16 0 47 32 47
48 0 19 -51 13 -95 -10z"/>
<path d="M1731 413 c-11 -21 -42 -63 -70 -94 -44 -49 -49 -58 -35 -69 12 -11
21 -8 50 21 42 40 116 149 111 164 -9 25 -37 14 -56 -22z"/>
<path d="M2126 429 c-14 -21 -113 -93 -139 -102 -9 -3 -9 -8 2 -21 13 -15 16
-15 47 3 27 16 33 17 38 5 7 -17 156 -20 173 -3 8 8 19 6 41 -5 16 -8 32 -12
36 -9 15 15 3 32 -45 63 -29 18 -63 46 -77 62 -30 33 -55 36 -76 7z m94 -74
c11 -13 4 -15 -60 -15 l-72 0 33 34 32 35 27 -19 c15 -11 33 -26 40 -35z"/>
<path d="M3640 295 l0 -155 -71 0 c-62 0 -70 -2 -67 -17 3 -16 21 -18 176 -20
165 -3 172 -2 172 17 0 17 -8 19 -87 22 l-88 3 0 75 0 75 73 3 c63 2 73 5 70
20 -3 14 -17 18 -76 20 l-72 3 0 54 c0 42 -3 55 -15 55 -13 0 -15 -24 -15
-155z"/>
<path d="M4068 328 c-4 -125 -16 -167 -52 -198 -13 -10 -14 -16 -5 -27 10 -11
15 -11 31 4 41 37 60 92 65 193 6 93 6 97 28 92 20 -3 22 -9 20 -50 -1 -35 -6
-48 -18 -50 -21 -4 -23 -32 -2 -32 14 0 17 -12 17 -75 0 -43 -1 -45 -28 -45
-19 0 -25 -4 -22 -17 3 -15 15 -18 73 -18 58 0 70 3 73 18 3 13 -3 17 -27 17
l-31 0 0 60 c0 53 2 60 20 60 11 0 20 7 20 15 0 8 -9 15 -20 15 -17 0 -20 7
-20 50 0 47 2 50 25 50 18 0 25 5 25 20 0 18 -7 20 -65 20 -37 0 -65 4 -65 10
0 6 -8 10 -19 10 -17 0 -19 -11 -23 -122z"/>
<path d="M1310 432 c0 -5 -13 -29 -30 -53 -16 -24 -30 -50 -30 -56 0 -23 29
-13 52 17 12 17 25 30 30 30 4 0 8 -31 8 -70 0 -63 2 -70 20 -70 11 0 20 7 20
15 0 12 15 15 75 15 60 0 75 3 75 15 0 12 -15 15 -75 15 -43 0 -75 4 -75 10 0
11 18 13 93 10 41 -1 47 1 47 19 0 19 -6 21 -70 21 -98 0 -88 19 12 22 70 3
83 6 86 21 3 15 -7 17 -102 17 -90 0 -105 2 -100 15 4 10 0 15 -15 15 -12 0
-21 -4 -21 -8z"/>
<path d="M3198 433 c-46 -3 -68 -8 -72 -18 -4 -12 6 -15 49 -15 42 0 55 -3 55
-15 0 -11 -11 -15 -40 -15 l-40 0 0 -50 0 -50 40 6 c33 5 40 4 40 -10 0 -13
-11 -16 -55 -16 -42 0 -55 -3 -55 -15 0 -11 11 -15 40 -15 41 0 49 -7 28 -28
-9 -9 -7 -13 8 -18 59 -19 59 -22 -2 -29 -55 -7 -61 -9 -56 -27 4 -18 11 -20
47 -15 23 4 64 14 90 23 47 16 51 15 102 -6 29 -12 57 -19 63 -15 19 12 10 35
-15 40 -84 17 -79 14 -61 34 9 10 16 23 16 29 0 7 16 12 40 12 29 0 40 4 40
15 0 12 -18 15 -97 15 -88 1 -96 2 -79 15 13 10 44 15 88 15 l68 0 0 45 0 45
-45 0 c-33 0 -45 4 -45 15 0 12 13 15 55 15 42 0 55 3 55 15 0 12 -16 15 -84
15 -46 0 -90 1 -98 3 -7 2 -43 1 -80 0z m112 -48 c0 -8 -9 -15 -20 -15 -11 0
-20 7 -20 15 0 8 9 15 20 15 11 0 20 -7 20 -15z m-80 -60 c0 -9 -9 -15 -25
-15 -24 0 -32 10 -18 23 12 13 43 7 43 -8z m80 0 c0 -8 -9 -15 -20 -15 -11 0
-20 7 -20 15 0 8 9 15 20 15 11 0 20 -7 20 -15z m90 0 c0 -9 -9 -15 -25 -15
-16 0 -25 6 -25 15 0 9 9 15 25 15 16 0 25 -6 25 -15z m-60 -114 c0 -20 -30
-32 -64 -25 -35 6 -43 14 -29 27 10 10 93 8 93 -2z"/>
<path d="M2390 410 c0 -18 7 -20 65 -20 56 0 65 -3 64 -17 -2 -48 -13 -56 -76
-57 -34 -1 -64 -4 -68 -8 -17 -16 11 -28 66 -28 58 0 60 -1 53 -22 -11 -36
-71 -101 -106 -115 -29 -12 -30 -15 -16 -29 13 -13 20 -14 39 -4 46 25 94 74
110 112 13 32 24 36 33 11 11 -29 50 -83 60 -83 6 0 22 -12 38 -27 23 -22 30
-24 43 -13 12 10 13 16 4 26 -6 8 -17 14 -24 14 -17 0 -104 102 -105 123 0 4
30 7 66 7 57 0 65 2 62 18 -3 14 -15 17 -73 17 -50 0 -70 4 -69 13 1 6 2 23 3
37 1 24 4 25 66 25 58 0 65 2 65 20 0 19 -7 20 -150 20 -143 0 -150 -1 -150
-20z"/>
<path d="M2770 411 c0 -10 6 -21 14 -24 7 -3 16 -18 20 -32 4 -15 23 -52 42
-82 33 -51 33 -54 17 -72 -22 -22 -76 -51 -98 -51 -18 0 -19 -5 -5 -31 10 -18
13 -18 70 12 32 17 64 37 71 45 10 12 14 12 28 1 35 -31 119 -70 134 -64 23 9
22 37 -1 37 -17 0 -112 54 -112 64 0 3 12 22 26 43 36 52 76 144 70 160 -4 10
-39 13 -141 13 -126 0 -135 -1 -135 -19z m220 -44 c0 -20 -64 -117 -77 -117
-10 0 -44 46 -58 79 -26 58 -23 61 60 61 72 0 75 -1 75 -23z"/>
<path d="M3890 410 c0 -13 7 -20 20 -20 17 0 20 -7 20 -45 0 -38 -3 -45 -20
-45 -11 0 -20 -7 -20 -15 0 -8 9 -15 20 -15 18 0 20 -7 20 -54 0 -49 -3 -55
-25 -63 -17 -5 -22 -12 -16 -21 13 -21 121 15 121 40 0 15 -5 17 -25 12 -23
-6 -25 -3 -25 24 0 40 9 62 26 62 22 0 17 27 -6 33 -34 9 -24 87 11 87 12 0
19 7 19 20 0 18 -7 20 -60 20 -53 0 -60 -2 -60 -20z"/>
<path d="M4020 353 c0 -21 -4 -55 -9 -75 -6 -27 -5 -40 4 -48 20 -17 28 4 33
87 4 63 2 73 -12 73 -12 0 -16 -10 -16 -37z"/>
<path d="M1813 357 c-6 -12 -45 -66 -87 -120 -80 -103 -87 -128 -33 -122 18 3
70 9 115 15 74 10 85 9 96 -5 7 -10 18 -14 29 -9 19 7 22 20 7 29 -5 3 -22 31
-36 61 -18 38 -31 54 -45 54 -23 0 -24 -17 -4 -44 27 -35 18 -44 -50 -51 -36
-4 -68 -5 -71 -3 -2 3 9 22 26 44 44 58 100 143 100 153 0 7 -23 21 -34 21 -2
0 -7 -10 -13 -23z"/>
<path d="M2027 250 c-5 -19 0 -20 104 -20 60 0 109 -4 109 -8 0 -18 -62 -70
-90 -76 -27 -5 -30 -8 -20 -26 14 -26 18 -26 72 10 61 40 78 61 85 104 l6 36
-131 0 c-121 0 -130 -1 -135 -20z"/>
<path d="M1400 218 c1 -21 26 -48 44 -48 20 0 20 9 0 38 -16 24 -44 30 -44 10z"/>
<path d="M1512 221 c-12 -7 -11 -14 3 -40 15 -31 40 -49 51 -38 5 4 -32 87
-39 87 -1 0 -8 -4 -15 -9z"/>
<path d="M1262 193 c-5 -16 -13 -35 -17 -44 -4 -10 0 -19 9 -22 11 -5 22 5 36
33 25 49 25 60 1 60 -12 0 -23 -11 -29 -27z"/>
<path d="M1332 168 l3 -53 78 -3 c73 -3 78 -1 86 20 5 14 5 28 -1 36 -14 17
-28 15 -28 -3 0 -11 -12 -15 -50 -15 l-50 0 0 35 c0 29 -4 35 -21 35 -18 0
-20 -5 -17 -52z"/>
</g>
</svg>
