<?xml version="1.0" standalone="no"?>
<!DOCTYPE svg PUBLIC "-//W3C//DTD SVG 20010904//EN"
 "http://www.w3.org/TR/2001/REC-SVG-20010904/DTD/svg10.dtd">
<svg version="1.0" xmlns="http://www.w3.org/2000/svg"
 width="440.000000pt" height="440.000000pt" viewBox="0 0 440.000000 440.000000"
 preserveAspectRatio="xMidYMid meet">

<g transform="translate(0.000000,440.000000) scale(0.100000,-0.100000)"
fill="#000000" stroke="none">
<path d="M2235 4310 c-64 -9 -111 -17 -240 -45 -154 -33 -327 -136 -475 -285
-113 -113 -162 -182 -227 -321 l-48 -104 0 -200 c1 -134 5 -215 14 -245 23
-80 71 -166 104 -185 29 -17 31 -17 44 0 7 11 13 28 14 39 0 20 1 20 9 -1 11
-26 33 -39 82 -48 28 -5 41 -15 52 -36 9 -17 11 -31 5 -35 -5 -3 -55 4 -111
16 -105 23 -167 22 -228 -4 -68 -28 -151 -167 -211 -350 -16 -49 -35 -96 -43
-105 -18 -20 -56 -132 -56 -166 0 -45 40 -123 79 -152 31 -24 45 -28 102 -27
58 0 72 4 104 28 20 16 51 49 67 75 27 42 29 52 25 110 -4 56 -1 72 25 130
l31 66 11 -42 c6 -23 18 -49 26 -58 25 -26 106 -82 128 -89 45 -15 45 -28 -3
-150 -25 -64 -45 -122 -45 -130 0 -7 -11 -22 -23 -35 -19 -17 -29 -20 -48 -13
-129 48 -345 -3 -396 -93 -29 -51 -29 -79 0 -135 16 -34 31 -48 57 -56 30 -10
35 -16 34 -40 -1 -16 -5 -81 -9 -145 -8 -119 0 -174 31 -210 8 -9 40 -29 71
-45 68 -34 188 -47 423 -47 115 1 161 5 219 21 l75 21 58 -25 c31 -13 62 -24
67 -24 5 0 38 -13 73 -29 35 -16 87 -36 117 -45 l53 -16 27 29 c20 21 32 27
42 20 8 -5 43 -18 79 -30 36 -12 70 -25 75 -29 6 -5 53 -25 105 -45 124 -49
170 -72 177 -91 8 -22 77 -54 116 -54 65 0 203 118 284 243 80 122 81 230 3
270 -45 22 -151 17 -207 -11 l-38 -20 -65 40 c-79 49 -75 44 -61 62 16 20 1
48 -41 77 -18 12 -43 32 -55 45 -12 12 -28 24 -35 26 -11 4 -11 11 1 39 36 93
71 179 91 229 54 131 54 131 75 124 109 -33 121 -34 410 -31 317 3 343 7 384
66 17 23 39 114 56 226 6 44 26 331 29 410 2 96 -79 208 -167 231 -15 3 -27
11 -27 16 0 6 8 7 18 3 48 -21 59 -18 78 22 26 53 27 279 0 368 -9 33 -22 80
-28 105 -13 56 -81 217 -118 280 -15 26 -31 57 -35 69 -26 84 -248 312 -325
336 -14 4 -32 13 -40 20 -44 36 -238 117 -350 146 -172 45 -345 58 -495 39z
m422 -805 c12 -3 66 -10 120 -15 117 -12 281 -51 361 -86 l58 -25 0 -152 c-1
-167 9 -215 66 -337 69 -144 27 -311 -95 -377 -23 -13 -54 -23 -68 -23 -15 0
-44 -6 -66 -14 -22 -8 -85 -22 -139 -31 -266 -46 -859 55 -1005 171 -27 21
-49 42 -49 47 0 13 -84 99 -120 122 -24 16 -40 37 -53 70 -9 27 -14 52 -10 56
5 4 55 12 113 18 58 7 112 14 121 17 13 3 15 36 15 247 -1 193 2 247 13 261
18 22 99 44 191 54 82 8 511 6 547 -3z m773 -620 c0 -2 -16 -12 -35 -24 l-36
-21 -8 23 c-5 12 -7 24 -6 27 4 6 85 0 85 -5z m157 -79 c16 -14 37 -42 47 -64
17 -36 17 -51 2 -258 -14 -199 -34 -351 -51 -396 -4 -9 -14 -20 -23 -24 -9 -4
-106 -9 -214 -12 -188 -4 -198 -3 -198 15 0 84 109 233 158 216 6 -3 12 -14
12 -24 0 -53 48 -80 70 -39 6 10 12 50 15 87 3 37 12 109 21 159 l16 91 -31
58 c-48 90 -40 142 32 188 53 35 105 36 144 3z m-2120 -23 c21 -8 21 -9 -12
-58 -34 -50 -54 -92 -71 -150 -6 -20 -17 -31 -31 -33 -35 -5 -88 -73 -118
-152 -24 -63 -26 -78 -17 -104 15 -41 4 -76 -36 -121 -31 -34 -37 -36 -85 -33
-46 3 -54 7 -74 37 -36 53 -27 118 31 221 13 25 30 68 37 95 28 112 125 285
173 306 24 10 169 5 203 -8z m183 -52 c25 -15 63 -49 85 -75 22 -26 59 -66 82
-88 l41 -41 -15 -36 c-84 -204 -269 -541 -296 -541 -11 0 22 109 62 205 22 55
41 105 41 111 0 17 -41 50 -96 77 -79 40 -114 73 -114 110 0 49 31 159 53 192
41 60 90 115 101 115 6 0 31 -13 56 -29z m1700 -260 c-7 -45 -16 -81 -21 -81
-5 0 -9 4 -9 9 0 5 -17 20 -37 32 -21 12 -40 24 -41 25 -2 1 20 27 50 57 30
31 57 52 62 47 5 -5 3 -43 -4 -89z m-1196 -51 c39 -6 116 -20 171 -30 55 -11
147 -24 205 -31 58 -6 106 -11 107 -12 4 -5 -20 -112 -48 -217 -55 -201 -149
-419 -222 -510 -27 -35 -52 -37 -210 -14 -75 11 -142 28 -202 51 -92 37 -265
131 -265 146 0 4 18 32 40 62 22 30 40 58 40 63 0 5 8 20 19 33 33 42 125 228
223 450 20 45 21 46 46 33 14 -7 57 -18 96 -24z m1033 -22 c64 -27 65 -35 16
-81 -59 -55 -110 -133 -118 -182 -15 -96 -7 -88 -93 -82 -42 3 -89 10 -104 17
-23 11 -26 17 -21 45 4 27 1 35 -18 45 -20 11 -25 10 -47 -15 l-23 -28 6 39
c4 22 13 62 20 89 7 28 16 62 19 78 6 26 9 27 67 27 62 0 175 24 219 47 31 16
42 16 77 1z m-417 -325 c-11 -17 -11 -17 -6 0 3 10 6 24 7 30 0 9 2 9 5 0 3
-7 0 -20 -6 -30z m-1412 -192 l23 -6 -28 -39 c-15 -21 -44 -57 -64 -80 -20
-22 -42 -59 -50 -81 -7 -22 -23 -51 -35 -65 -12 -14 -24 -32 -27 -40 -10 -27
-8 23 4 84 13 71 2 89 -46 80 -48 -9 -75 9 -75 50 0 41 23 63 92 87 53 18 160
24 206 10z m1235 -231 c-3 -11 -9 -20 -15 -20 -5 0 -4 9 2 20 6 11 12 20 14
20 2 0 2 -9 -1 -20z m-1278 -316 l46 -77 -53 7 c-81 11 -130 42 -147 94 -17
55 -8 112 19 112 11 0 27 12 37 26 l17 26 18 -56 c10 -31 39 -90 63 -132z
m1437 53 c197 -120 189 -117 223 -91 37 28 116 45 151 34 39 -13 45 -31 29
-85 -30 -101 -201 -285 -265 -285 -28 0 -55 17 -61 38 -4 13 -129 72 -204 97
-22 7 -60 24 -85 36 -25 12 -72 32 -104 43 -33 12 -61 26 -63 32 -10 31 263
198 332 203 6 0 26 -9 47 -22z"/>
<path d="M2410 3356 c-22 -28 -5 -46 43 -46 78 0 109 -10 120 -41 10 -27 57
-47 78 -33 12 7 0 55 -20 78 -40 47 -192 76 -221 42z"/>
<path d="M2847 3302 c-24 -3 -27 -7 -21 -25 4 -12 14 -27 23 -34 18 -14 99
-28 108 -19 9 9 -44 73 -64 77 -10 3 -31 3 -46 1z"/>
<path d="M2436 3222 c-12 -20 29 -55 64 -54 40 1 70 26 53 43 -16 16 -109 24
-117 11z"/>
<path d="M2820 3132 c0 -28 25 -45 56 -38 19 5 25 12 22 29 -2 18 -11 23 -40
25 -32 3 -38 0 -38 -16z"/>
<path d="M2610 2913 c0 -34 32 -53 86 -53 57 0 91 18 81 44 -4 10 -18 16 -40
16 -19 0 -55 3 -81 6 -41 6 -46 5 -46 -13z"/>
<path d="M2697 2763 c-24 -23 21 -48 57 -31 14 6 26 14 26 18 0 15 -71 26 -83
13z"/>
<path d="M2623 2625 c17 -16 82 -21 91 -6 8 12 -9 17 -63 20 -39 2 -42 0 -28
-14z"/>
<path d="M2010 641 c0 -210 -15 -330 -46 -380 -9 -14 -34 -42 -56 -62 -32 -29
-37 -39 -26 -45 7 -5 21 -21 31 -37 10 -15 23 -27 30 -27 28 0 105 96 133 165
28 70 29 71 32 328 l4 257 -51 0 -51 0 0 -199z"/>
<path d="M1650 745 l0 -55 35 0 35 0 0 -75 0 -75 -30 0 c-30 0 -30 -1 -30 -55
0 -54 0 -55 30 -55 l30 0 0 -80 0 -80 -45 -11 c-25 -6 -45 -13 -45 -16 0 -2 5
-25 11 -50 l12 -45 38 5 c22 3 77 15 124 28 l86 22 -3 46 c-3 45 -4 46 -35 45
l-33 -2 0 69 c0 63 2 69 21 69 11 0 18 -4 15 -9 -7 -11 50 -61 69 -61 21 0 43
86 50 198 6 111 9 105 -52 116 l-33 6 0 -81 c0 -73 -2 -80 -17 -74 -10 5 -26
8 -35 9 -16 0 -18 11 -18 78 l0 78 35 0 35 0 0 55 0 55 -125 0 -125 0 0 -55z"/>
<path d="M2130 745 l0 -55 35 0 35 0 0 -85 0 -85 -35 0 -35 0 0 -50 0 -50 35
0 35 0 0 -99 0 -100 -52 -3 -53 -3 -3 -52 -3 -53 154 0 153 0 0 53 -1 52 -42
3 -43 3 0 100 0 99 36 0 35 0 -3 48 c-3 45 -4 47 -35 50 l-33 3 0 85 0 84 35
0 35 0 0 55 0 55 -125 0 -125 0 0 -55z"/>
<path d="M2773 792 l-283 -2 0 -60 0 -60 210 0 211 0 -33 -29 c-18 -15 -52
-40 -75 -55 -24 -14 -44 -34 -44 -44 -1 -9 -3 -82 -4 -162 -1 -80 -3 -153 -4
-162 -1 -15 -12 -18 -76 -18 -41 0 -75 -2 -75 -5 0 -3 9 -23 20 -45 11 -22 20
-46 20 -55 0 -20 98 -20 153 -1 77 28 77 28 77 227 0 171 1 179 21 190 35 18
129 93 199 157 58 53 63 61 45 68 -11 4 -33 19 -50 33 l-30 26 -282 -3z"/>
<path d="M1198 782 l-328 -2 0 -60 0 -60 140 0 140 0 0 -285 0 -285 60 0 60 0
0 176 c0 175 0 175 21 169 21 -7 85 -50 145 -99 l32 -26 41 45 c22 24 41 50
41 57 -1 23 -243 163 -267 154 -10 -4 -13 7 -13 44 l0 49 158 3 157 3 0 59 c0
59 0 59 -30 60 -16 1 -177 0 -357 -2z"/>
<path d="M3316 673 c4 -43 14 -127 23 -188 l16 -110 46 -3 46 -3 16 118 c9 65
20 151 23 191 l7 72 -92 0 -92 0 7 -77z"/>
<path d="M3350 311 c-31 -16 -35 -23 -38 -63 -3 -40 1 -48 28 -72 50 -42 104
-32 139 25 23 38 16 73 -21 104 -35 30 -61 31 -108 6z"/>
</g>
</svg>
